<svg xmlns="http://www.w3.org/2000/svg" width="184" height="126" viewBox="0 0 184 126" fill="none" class="injected-svg" data-src="../../../../build/images/myTransactions/noExistingTransactions.svg" xmlns:xlink="http://www.w3.org/1999/xlink">
<path fill-rule="evenodd" clip-rule="evenodd" d="M91.8839 66.3508C95.4772 66.8587 97.1117 67.8183 97.8925 68.5445C100.133 70.6257 98.9182 76.7568 92.0526 76.7568C89.2369 76.7568 86.8264 75.2844 85.766 73.1933H74.7313C75.7686 78.9588 80.5646 83.6374 86.8959 85.3116L86.9059 90.2118H97.1894L97.1944 85.3149C100.452 84.448 103.316 82.7953 105.458 80.6099C109.151 77.0811 112.707 68.2898 105.752 61.6011C102.99 58.9459 98.7942 57.27 93.5829 56.5586C88.7505 55.8638 87.0167 54.5403 86.1233 53.7263C84.1828 51.9628 85.1969 45.3982 92.0625 45.3982C95.8428 45.3982 98.9166 48.0568 98.9166 51.3176L109.609 51.3209C109.607 44.4966 104.381 38.7361 97.1894 36.8451V31.432H86.9059L86.9009 36.8484C77.2956 39.3697 74.4468 47.4232 74.4468 51.4466C74.4468 53.551 75.0357 57.265 77.8399 60.2379C80.6292 63.2108 85.3077 65.4641 91.8839 66.3508Z" fill="#3FB55D"></path>
<path fill-rule="evenodd" clip-rule="evenodd" d="M102.42 117.499C102.167 120.523 101.133 123.43 99.421 125.936C99.5401 125.931 99.6477 125.89 99.7651 125.887C113.073 124.696 124.994 119.398 134.011 111.201L135.261 125.599H183.556L179.064 72.2305C177.908 58.6878 166.21 48.568 152.976 49.7194C142.316 51.1984 133.255 57.3659 130.96 74.1148C128.411 92.748 115.776 103.905 99.2622 105.852C101.656 109.24 102.774 113.366 102.42 117.499Z" fill="#DFE7ED"></path>
<path fill-rule="evenodd" clip-rule="evenodd" d="M144.693 44.9371C156.797 43.8518 165.754 32.933 164.695 20.545C163.634 8.1604 152.967 -0.996548 140.852 0.0870655C128.759 1.17068 119.795 12.0813 120.854 24.4725C121.913 36.8555 132.588 46.024 144.693 44.9371Z" fill="#DFE7ED"></path>
<path fill-rule="evenodd" clip-rule="evenodd" d="M49.1812 120.012C40.6314 113.569 34.0486 105.106 30.1857 94.8476L36.7585 92.3098C44.4033 111.415 62.5138 124.031 84.2787 125.976C90.1418 126.357 94.4514 122.098 94.8997 116.877C95.3663 111.362 91.3792 106.513 85.9827 106.031C68.7573 104.489 55.3768 93.0775 53.0143 73.713C51.5122 61.4045 43.419 50.8397 31.0641 49.7313C17.1443 48.4806 6.09967 59.0719 5.00778 71.8783L0 125.611H48.6865L49.1812 120.012Z" fill="#4F6A83"></path>
<path fill-rule="evenodd" clip-rule="evenodd" d="M42.1224 44.9371C54.2274 43.8518 63.1826 32.933 62.1238 20.545C61.0633 8.1604 50.391 -0.996548 38.2826 0.0870655C26.1825 1.17068 17.2225 12.0813 18.2813 24.4725C19.3401 36.8555 30.019 46.024 42.1208 44.9371" fill="#4F6A83"></path>
<path fill-rule="evenodd" clip-rule="evenodd" d="M92.6449 31.4323C109.091 31.4323 122.424 44.7648 122.424 61.2109C122.424 77.6571 109.091 90.9896 92.6449 90.9896C76.1988 90.9896 62.8662 77.6571 62.8662 61.2109C62.8662 44.7648 76.1988 31.4323 92.6449 31.4323Z" fill="#3FB55D"></path>
<path fill-rule="evenodd" clip-rule="evenodd" d="M97.3683 66.6538C97.3683 65.7372 97.0771 64.9795 96.4964 64.3823C95.9141 63.7851 94.9446 63.2458 93.588 62.766C92.2315 62.2862 91.176 61.8429 90.4216 61.4342C87.9119 60.0876 86.6579 58.0957 86.6579 55.4553C86.6579 53.6686 87.2005 52.1979 88.2891 51.0448C89.376 49.8933 90.8534 49.2084 92.7162 48.9933V45.4712H95.3003V49.0264C97.1747 49.2961 98.6239 50.0902 99.6463 51.4087C100.67 52.7289 101.182 54.4429 101.182 56.5538H97.2723C97.2723 55.1972 96.9679 54.1285 96.3591 53.3477C95.7503 52.5668 94.9231 52.1764 93.8776 52.1764C92.8452 52.1764 92.0379 52.4576 91.4555 53.0168C90.8732 53.576 90.5837 54.3783 90.5837 55.4239C90.5837 56.3603 90.8716 57.1114 91.4473 57.6771C92.023 58.2429 93.0024 58.779 94.3805 59.2852C95.7586 59.7914 96.8405 60.2613 97.6264 60.6914C98.4138 61.1215 99.0756 61.6146 99.6149 62.1688C100.153 62.723 100.568 63.3616 100.859 64.0829C101.149 64.8058 101.294 65.6512 101.294 66.6207C101.294 68.4405 100.737 69.9162 99.6232 71.0461C98.5081 72.1777 96.9547 72.8461 94.9612 73.0496V76.2011H92.3919V73.0661C90.2594 72.8295 88.62 72.0652 87.4735 70.7715C86.3253 69.4794 85.7529 67.7672 85.7529 65.6347H89.6788C89.6788 66.9913 90.0196 68.0418 90.7045 68.7846C91.3877 69.5291 92.3555 69.8996 93.6046 69.8996C94.8321 69.8996 95.7668 69.6019 96.4071 69.0112C97.049 68.419 97.3683 67.6332 97.3683 66.6521V66.6538Z" fill="white"></path>
</svg>
